<svg width="296" height="118" xmlns="http://www.w3.org/2000/svg"><g fill="none" fill-rule="evenodd"><path d="M.713.656h295.212V117.5H.713V.656z"/><path d="M96.21 43.538a2.45 2.45 0 0 0-2.468 0L62.204 61.912a2.5 2.5 0 0 0-1.235 2.159v9.689c0 .89.47 1.712 1.235 2.157a2.45 2.45 0 0 0 2.446.01l.021-.011 10.377-6.05V92.33c0 .888.47 1.711 1.234 2.156.381.221.807.334 1.233.334.426 0 .852-.113 1.235-.334l6.202-3.614a2.496 2.496 0 0 0 1.233-2.156v-25.34l10.025-5.84a2.497 2.497 0 0 0 1.234-2.158v-9.683c0-.89-.47-1.712-1.234-2.156m-34.006-5.872l9.536 5.558c.301.175.488.5.488.85v6.724a.98.98 0 0 0 1.47.854c3.857-2.243 14.232-8.278 18.07-10.504.654-.38.642-1.315-.01-1.694L64.672 23.671a2.45 2.45 0 0 0-2.467 0 2.495 2.495 0 0 0-1.235 2.156v9.683c0 .89.47 1.712 1.235 2.157m-5.591-13.996a2.453 2.453 0 0 0-2.469 0l-27.113 15.8c-.64.372-.653 1.289-.013 1.66 3.827 2.22 14.286 8.303 18.13 10.54.642.374 1.44-.096 1.44-.84v-6.768c0-.343.182-.66.48-.833l9.058-5.28a3.467 3.467 0 0 0 1.722-2.994v-9.129c0-.888-.47-1.71-1.235-2.156m-.533 38.241l-31.54-18.374a2.45 2.45 0 0 0-2.467 0 2.493 2.493 0 0 0-1.233 2.156v9.683c0 .888.47 1.711 1.233 2.157L32.1 63.375v25.34c0 .889.47 1.71 1.234 2.156l6.201 3.614c.385.221.81.334 1.235.334.426 0 .851-.113 1.234-.334a2.495 2.495 0 0 0 1.233-2.156V69.866l10.376 6.05.023.011a2.45 2.45 0 0 0 2.446-.01 2.498 2.498 0 0 0 1.235-2.157v-9.69c0-.89-.472-1.712-1.235-2.159" fill="#FFF"/><path d="M59.136.656C26.871.656.713 26.812.713 59.079c0 32.265 26.158 58.421 58.423 58.421 32.266 0 58.423-26.156 58.423-58.421 0-32.267-26.157-58.423-58.423-58.423zm-1.826 73.09c0 .89-.47 1.711-1.233 2.156a2.443 2.443 0 0 1-2.466-.002l-10.367-6.042v22.44c0 .89-.47 1.712-1.232 2.157a2.47 2.47 0 0 1-1.233.333c-.425 0-.85-.113-1.233-.333l-6.197-3.612a2.492 2.492 0 0 1-1.233-2.154V63.371L22.1 57.536a2.495 2.495 0 0 1-1.232-2.156v-9.675c0-.889.469-1.709 1.232-2.153a2.441 2.441 0 0 1 2.466 0l31.511 18.357a2.5 2.5 0 0 1 1.233 2.158v9.68zm.533-38.77a3.465 3.465 0 0 1-1.719 2.993l-9.53 5.554v7.314a.96.96 0 0 1-1.44.84c-3.84-2.234-14.29-8.314-18.112-10.53-.64-.371-.627-1.287.012-1.659l27.09-15.785a2.448 2.448 0 0 1 2.466 0 2.492 2.492 0 0 1 1.233 2.154v9.12zm3.118-9.119c0-.888.47-1.71 1.234-2.154a2.445 2.445 0 0 1 2.465 0l27.076 15.775c.646.377.657 1.303.01 1.678-3.825 2.219-14.21 8.26-18.067 10.504a.98.98 0 0 1-1.47-.854V43.62a.17.17 0 0 0-.083-.147l-9.93-5.786a2.495 2.495 0 0 1-1.235-2.157v-9.673zM97.404 55.38c0 .888-.468 1.71-1.233 2.156L86.155 63.37v25.318a2.49 2.49 0 0 1-1.232 2.154l-6.198 3.612a2.47 2.47 0 0 1-1.233.333 2.46 2.46 0 0 1-1.231-.333 2.492 2.492 0 0 1-1.234-2.156v-22.44L64.66 75.9a2.443 2.443 0 0 1-2.465.001 2.49 2.49 0 0 1-1.234-2.154v-9.68a2.5 2.5 0 0 1 1.234-2.158l31.51-18.357a2.441 2.441 0 0 1 2.466 0 2.487 2.487 0 0 1 1.233 2.153v9.675zm33.137-22.107c0-.78.622-1.48 1.4-1.48h19.01c15.033 0 27.344 12.23 27.344 27.187 0 15.113-12.31 27.345-27.345 27.345h-19.009c-.778 0-1.4-.7-1.4-1.48V33.273zm20.33 41.523c8.805 0 14.492-6.934 14.492-15.816 0-8.801-5.687-15.735-14.491-15.735h-8.179v31.55h8.179zm34.042-22.75c0-1.012.779-1.713 1.712-1.713h3.74c.938 0 1.404.469 1.635 1.092l1.636 3.972c1.56-2.882 4.285-5.843 8.96-5.843 3.275 0 5.69.858 7.012 1.87.624.468.624 1.245.234 1.948l-3.585 7.088c-.386.702-1.012 1.248-2.025.858-.624-.235-1.947-.545-2.726-.545-2.726 0-4.75 1.948-4.75 4.985v18.854c0 1.09-.626 1.713-1.948 1.713h-8.183a1.73 1.73 0 0 1-1.712-1.713V52.046m31.178-13.438c0-3.738 2.961-6.854 6.697-6.854 3.741 0 6.78 3.116 6.78 6.854 0 3.662-3.039 6.701-6.78 6.701-3.736 0-6.697-3.039-6.697-6.7zm.86 13.4c0-1.012.775-1.714 1.71-1.714h8.412c.94 0 1.716.702 1.716 1.714v32.565c0 .933-.777 1.713-1.716 1.713h-8.411c-.936 0-1.712-.78-1.712-1.713V52.008zm23.067 8.998h-3.116c-1.013 0-1.714-.779-1.714-1.713v-7.247c0-1.012.701-1.713 1.714-1.713h3.116v-2.96c0-9.66 5.063-16.36 15.503-16.36 4.672 0 9.426 1.948 10.986 3.429.546.388.697 1.324.31 2.024l-3.816 6.7c-.393.624-1.249.857-1.949.467-1.169-.701-2.88-1.401-4.675-1.401-4.05 0-4.52 2.259-4.52 5.142v2.959h9.04c.932 0 1.711.701 1.711 1.713v7.247c0 .934-.779 1.713-1.712 1.713h-9.038v23.606c0 .933-.856 1.713-1.788 1.713h-8.337c-.859 0-1.715-.78-1.715-1.713V61.006m33.56-.038h-2.96c-.856 0-1.56-.78-1.56-1.715v-7.245c0-1.012.704-1.714 1.56-1.714h2.96v-9.971a1.73 1.73 0 0 1 1.715-1.715h8.567c.859 0 1.559.78 1.559 1.715v9.971h7.247c.932 0 1.712.702 1.712 1.714v7.245a1.73 1.73 0 0 1-1.712 1.715h-7.247V73.51c0 1.714.856 2.492 2.416 2.492 1.246 0 3.582-.545 4.44-.778.935-.234 1.791.155 2.026 1.09l1.56 6.779c.231 1.09-.159 1.557-1.17 2.024-2.415 1.013-6.466 2.027-10.286 2.027-6.853 0-10.827-4.364-10.827-12.543V60.968" fill="#2D88F3"/></g></svg>