<svg width="18" height="18" xmlns="http://www.w3.org/2000/svg"><path d="M17.946 5.29a6.606 6.606 0 0 0-.418-2.185 4.412 4.412 0 0 0-1.039-1.594A4.412 4.412 0 0 0 14.895.472a6.606 6.606 0 0 0-2.184-.418C11.75.01 11.444 0 9 0S6.25.01 5.29.054a6.606 6.606 0 0 0-2.185.418c-.6.226-1.145.58-1.594 1.039-.458.45-.813.993-1.039 1.594a6.606 6.606 0 0 0-.418 2.184C.01 6.25 0 6.556 0 9s.01 2.75.054 3.71c.015.747.157 1.486.418 2.185.226.6.58 1.145 1.039 1.594.45.458.993.813 1.594 1.039a6.628 6.628 0 0 0 2.184.418C6.25 17.99 6.556 18 9 18s2.75-.01 3.71-.054a6.606 6.606 0 0 0 2.185-.418 4.602 4.602 0 0 0 2.633-2.633 6.628 6.628 0 0 0 .418-2.184C17.99 11.75 18 11.444 18 9s-.01-2.75-.054-3.71zm-1.62 7.347a4.978 4.978 0 0 1-.31 1.67 2.98 2.98 0 0 1-1.708 1.709 4.99 4.99 0 0 1-1.671.31c-.95.043-1.234.052-3.637.052s-2.688-.009-3.637-.052a4.979 4.979 0 0 1-1.67-.31 2.788 2.788 0 0 1-1.036-.673 2.788 2.788 0 0 1-.673-1.035 4.978 4.978 0 0 1-.31-1.671c-.043-.95-.052-1.234-.052-3.637s.009-2.688.052-3.637c.007-.57.112-1.136.31-1.67.144-.392.374-.745.673-1.036a2.78 2.78 0 0 1 1.035-.673 4.979 4.979 0 0 1 1.671-.31c.95-.043 1.234-.052 3.637-.052s2.688.009 3.637.052c.57.007 1.136.112 1.67.31.392.144.745.374 1.036.673.299.29.529.644.673 1.035.198.535.303 1.1.31 1.671.043.95.052 1.234.052 3.637s-.009 2.688-.052 3.637zM9 4.378a4.622 4.622 0 1 0 0 9.244 4.622 4.622 0 0 0 0-9.244zM9 12a3 3 0 1 1 0-6 3 3 0 0 1 0 6zm5.884-7.804a1.08 1.08 0 1 1-2.16 0 1.08 1.08 0 0 1 2.16 0z" fill="#4C83FF"/></svg>