<svg width="195" height="42" xmlns="http://www.w3.org/2000/svg"><g fill="#4B5057" fill-rule="evenodd"><path d="M53.792 36V22.512c.288-3.36 2.304-4.992 4.368-4.992 2.256 0 4.32 1.68 4.32 4.944V36h6.768V22.08c0-6.288-3.648-10.08-8.496-10.08-3.216 0-5.568 1.584-7.104 3.792.096-.624.144-1.248.144-1.632V0h-6.72v36h6.72zm43.584-23.424h-6.72v13.728c-.144 3.168-2.352 4.752-4.368 4.752-2.256 0-4.32-1.68-4.32-4.944V12.576H75.2v13.92c0 6.288 3.648 10.08 8.496 10.08 3.168 0 5.568-1.584 7.104-3.792a12.506 12.506 0 0 0-.144 1.632V36h6.72V12.576zM125.84 36h-6.48v-3.072c-1.872 2.208-4.368 3.552-7.104 3.552-6.576 0-10.128-5.952-10.128-12.288 0-6.24 3.696-12.144 10.176-12.144 2.592 0 4.992.96 6.816 2.88V0h6.72v36zm-11.808-5.472c3.072 0 5.184-3.072 5.184-6.288 0-3.6-2.064-6.192-5.184-6.192-3.504 0-5.232 2.784-5.232 6.24 0 3.408 1.776 6.24 5.232 6.24zM154.304 36h-6.48v-3.072c-1.872 2.208-4.368 3.552-7.104 3.552-6.576 0-10.128-5.952-10.128-12.288 0-6.24 3.696-12.144 10.176-12.144 2.592 0 4.992.96 6.816 2.88V0h6.72v36zm-11.808-5.472c3.072 0 5.184-3.072 5.184-6.288 0-3.6-2.064-6.192-5.184-6.192-3.504 0-5.232 2.784-5.232 6.24 0 3.408 1.776 6.24 5.232 6.24zM167.264 36V0h-6.816v36h6.816zm27.456-10.272h-15.984c.48 3.888 2.88 5.328 5.52 5.328 2.592 0 4.368-1.2 5.52-2.88l4.464 3.216c-2.496 3.36-5.04 5.088-10.368 5.088-6.864 0-11.904-5.04-11.904-12.24 0-6.672 4.512-12.192 11.712-12.192 7.92 0 11.04 5.664 11.04 12.864v.816zm-11.088-8.208c-2.16 0-4.032 1.344-4.704 4.08h9.264c-.432-2.688-2.496-4.08-4.56-4.08z"/><path d="M30.968 37.898c-.108.331-.365.698-.786.821-.304.09-10.366 3.021-10.676 3.103-.886.237-1.502.063-1.906-.296-.616-.546-7.731-5.415-16.707-5.875-.96-.048-.49-3.707 2.253-3.707 1.88 0 7.374 1.374 8.037.705.512-.517.745-3.57-1.392-8.898l-4.297-10.71a1.99 1.99 0 0 1 1.092-2.582 1.967 1.967 0 0 1 2.567 1.098s3.383 8.432 3.751 9.346c.365.912.814 1.258 1.303 1.068.437-.167.527-.46.263-1.347L10.605 9.17a1.984 1.984 0 0 1 1.232-2.516 1.966 1.966 0 0 1 2.503 1.239l3.675 10.89c.325.958.67 1.46 1.213 1.228.327-.139.304-.642.217-1.081l-2.58-10.395a1.985 1.985 0 0 1 1.438-2.407 1.972 1.972 0 0 1 2.39 1.446l2.38 9.58c.348 1.407.668 1.915 1.221 1.776.565-.139.538-.606.461-.992l-1.647-8.223a1.803 1.803 0 0 1 1.405-2.124 1.791 1.791 0 0 1 2.108 1.411l1.79 8.951.003.002v.002l1.073 5.368a23.2 23.2 0 0 0 .85 2.9c2.05 5.49.98 10.572.63 11.673z" fill-rule="nonzero"/></g></svg>